#N canvas 366 75 999 692 10;
#X obj 35 131 r~ s1;
#X obj 83 131 r~ s2;
#X obj 345 56 s final_select;
#X obj 285 56 r~ sel1;
#X obj 283 19 s~ so1;
#X obj 329 20 s~ so2;
#X obj 376 20 s~ so3;
#X obj 422 20 s~ so4;
#X obj 473 20 s~ so5;
#X obj 524 19 s~ so6;
#X obj 574 18 s~ so7;
#X obj 628 18 s~ so8;
#X text 677 17 in;
#X obj 373 357 r~ rarc1;
#X obj 374 320 r~ rarc2;
#X text 119 118 audio in;
#X obj 55 312 s trigger1;
#X obj 141 313 s trigger2;
#X obj 19 79 s~ o1;
#X obj 74 80 s~ o2;
#X text 289 386 write to file;
#X obj 55 396 s writetrigger1;
#X obj 170 386 s writetrigger2;
#X obj 50 348 s trigstop1;
#X obj 138 346 s trigstop2;
#X obj 33 463 s end1;
#X obj 73 436 s start1;
#X obj 156 441 s start2;
#X obj 158 467 s end2;
#X text 218 421 start and end points - value from 0 to 100;
#X obj 698 232 s~ which one1;
#X obj 266 451 r fidtrig1;
#X text 791 236 audio of which one;
#X obj 687 471 s jekyll1;
#X text 844 474 speeds;
#X obj 565 447 s jekyll2;
#X obj 687 502 s jekyll3;
#X obj 763 500 s jekyll4;
#X obj 680 552 r counter1;
#X obj 771 552 r counter2;
#X obj 680 576 r counter3;
#X obj 679 529 r counter4;
#X text 831 564 output counters 1 to 8;
#X obj 841 498 s jbang1;
#X obj 848 529 s jbang2;
#X obj 917 498 s jbang3;
#X obj 921 529 s jbang4;
#X text 905 469 slow to fast;
#X text 874 609 output bang;
#X obj 733 605 r bang1;
#X obj 730 631 r bang2;
#X obj 791 605 r bang1;
#X obj 790 630 r bang2;
#X obj 40 506 r~ archivred1;
#X obj 146 505 r~ archivred2;
#X text 244 502 archive out;
#X obj 39 538 s file1;
#X obj 103 538 s file2;
#X text 166 539 arch select;
#X text 239 348 stopbang;
#X text 223 313 start recordingbang;
#X text 337 -4 //multiplex 8 in 1 out;
#X text 78 204 //archiver;
#X text 356 450 //thresholds;
#X text 681 447 //counters;
#X obj 36 575 s arcread1;
#X obj 117 577 s arcread2;
#X text 758 261 receive bang raw amplitude;
#X obj 697 284 r rawamp;
#X text 760 290 rawamplitude;
#X obj 33 173 s~ sarc1;
#X obj 100 172 s~ sarc2;
#X floatatom 7 353 5 0 100 0 - - -, f 5;
#X floatatom 38 370 5 10 100 0 - - -, f 5;
#X obj 15 427 + 10;
#X floatatom 294 336 5 0 100 0 - - -, f 5;
#X floatatom 321 344 5 10 100 0 - - -, f 5;
#X obj 298 401 + 10;
#X floatatom 648 418 5 0 0 0 - - -, f 5;
#X obj 159 225 s~ archive_main;
#X obj 9 20 r~ alice_anna;
#X obj 268 474 tgl 15 0 empty empty empty 0 -6 0 8 -262144 -1 -1 0
1;
#X floatatom 646 633 5 0 0 0 - - -, f 5;
#X obj 55 262 bang;
#X msg 34 235 bang;
#X obj 340 506 *~ 1;
#X obj 315 531 *~ 0.4;
#X floatatom 774 581 5 0 0 0 - - -, f 5;
#X obj 291 77 *~ 1.2;
#X floatatom 98 226 5 0 0 0 - - -, f 5;
#X obj 17 -11 r~ alice;
#X text 350 77 mux out;
#X obj 893 53 jekyll;
#X obj 893 75 multiplex;
#X obj 892 100 in-out;
#X obj 892 125 archiver;
#X obj 893 150 recorder;
#X obj 893 173 thresholds;
#X text 91 64 audio out;
#X obj 893 198 new_alice;
#X connect 0 0 70 0;
#X connect 1 0 70 0;
#X connect 3 0 88 0;
#X connect 13 0 85 0;
#X connect 31 0 16 0;
#X connect 31 0 81 0;
#X connect 31 0 17 0;
#X connect 38 0 82 0;
#X connect 39 0 87 0;
#X connect 72 0 26 0;
#X connect 72 0 74 0;
#X connect 73 0 74 1;
#X connect 74 0 25 0;
#X connect 75 0 77 0;
#X connect 75 0 27 0;
#X connect 76 0 77 1;
#X connect 77 0 28 0;
#X connect 78 0 35 0;
#X connect 78 0 36 0;
#X connect 78 0 33 0;
#X connect 83 0 16 0;
#X connect 84 0 16 0;
#X connect 85 0 86 0;
#X connect 89 0 72 0;
#X connect 89 0 75 0;
