#N canvas 1 50 1364 717 10;
#X floatatom 114 212 5 0 0 0 - - -, f 5;
#X floatatom 239 216 5 0 0 0 - - -, f 5;
#X obj 225 169 unpack f f f f f f f f f f;
#X floatatom 194 216 5 0 0 0 - - -, f 5;
#X floatatom 414 218 5 0 0 0 - - -, f 5;
#X floatatom 281 216 5 0 0 0 - - -, f 5;
#X floatatom 324 215 5 0 0 0 - - -, f 5;
#X floatatom 370 217 5 0 0 0 - - -, f 5;
#X floatatom 461 218 5 0 0 0 - - -, f 5;
#X floatatom 508 219 5 0 0 0 - - -, f 5;
#X floatatom 557 219 5 0 0 0 - - -, f 5;
#X obj 305 410 pack f f f f f f f f f f;
#X obj 89 264 r lpc1;
#X obj 231 265 r lpc1;
#X obj 163 266 r lpc1;
#X obj 289 263 r lpc1;
#X obj 442 266 r lpc1;
#X obj 374 267 r lpc1;
#X obj 503 269 r lpc1;
#X obj 645 270 r lpc1;
#X obj 577 271 r lpc1;
#X obj 714 270 r lpc1;
#X obj 70 287 *;
#X obj 130 289 *;
#X obj 203 291 *;
#X obj 281 288 *;
#X obj 340 290 *;
#X obj 414 292 *;
#X obj 484 292 *;
#X obj 544 294 *;
#X obj 616 296 *;
#X obj 695 292 *;
#X obj 250 135 r coeffs;
#X obj 335 450 s changedcoeffs;
#X floatatom 85 353 5 0 0 0 - - -, f 5;
#X connect 0 0 22 0;
#X connect 1 0 24 0;
#X connect 2 0 0 0;
#X connect 2 1 3 0;
#X connect 2 2 1 0;
#X connect 2 3 5 0;
#X connect 2 4 6 0;
#X connect 2 5 7 0;
#X connect 2 6 4 0;
#X connect 2 7 8 0;
#X connect 2 8 9 0;
#X connect 2 9 10 0;
#X connect 3 0 23 0;
#X connect 4 0 28 0;
#X connect 5 0 25 0;
#X connect 6 0 26 0;
#X connect 7 0 27 0;
#X connect 8 0 29 0;
#X connect 9 0 30 0;
#X connect 10 0 31 0;
#X connect 11 0 33 0;
#X connect 12 0 22 1;
#X connect 13 0 24 1;
#X connect 14 0 23 1;
#X connect 15 0 25 1;
#X connect 16 0 27 1;
#X connect 17 0 26 1;
#X connect 18 0 28 1;
#X connect 19 0 30 1;
#X connect 20 0 29 1;
#X connect 21 0 31 1;
#X connect 22 0 11 0;
#X connect 22 0 34 0;
#X connect 23 0 11 1;
#X connect 24 0 11 2;
#X connect 25 0 11 3;
#X connect 26 0 11 4;
#X connect 27 0 11 5;
#X connect 28 0 11 6;
#X connect 29 0 11 7;
#X connect 30 0 11 8;
#X connect 31 0 11 9;
#X connect 32 0 2 0;
