#N canvas 1 50 1351 717 10;
#X obj 624 166 netreceive 9999 1 -u;
#N canvas 25 76 999 692 speaker 0;
#X obj 43 118 flite \$0-text;
#X obj 147 118 table \$0-text;
#X obj 43 165 tabplay~ \$0-text;
#X msg 43 141 bang;
#X obj 43 85 list;
#X obj 43 51 inlet text;
#X text 40 30 the text as a list;
#X obj 43 221 outlet~;
#X text 46 244 audio;
#X text 148 242 text finished;
#X obj 150 221 outlet finished;
#X text 236 66 the speech synthesis;
#X connect 0 0 3 0;
#X connect 2 0 7 0;
#X connect 2 1 10 0;
#X connect 3 0 2 0;
#X connect 4 0 0 0;
#X connect 5 0 4 0;
#X restore 630 195 pd speaker;
#X obj 722 228 bng 15 250 50 0 empty empty empty 17 7 0 10 -262144
-1 -1;
#X msg 795 247 disconnect;
#X floatatom 795 352 0 0 0 0 - - -;
#X obj 795 325 netsend -u;
#X text 870 198 UDP \, ascii;
#X msg 812 300 send done;
#X msg 781 224 connect localhost 8888;
#X obj 565 239 print;
#X text 752 197 bang to start;
#X text 692 124 git diff HEAD~132 | python ../../test2.py // send in
lines to speak;
#X obj 663 232 noise~;
#X obj 666 254 *~ 0.1;
#X obj 611 435 lpc~;
#X connect 0 0 1 0;
#X connect 0 0 9 0;
#X connect 1 1 2 0;
#X connect 2 0 8 0;
#X connect 2 0 7 0;
#X connect 3 0 5 0;
#X connect 5 0 4 0;
#X connect 7 0 5 0;
#X connect 8 0 5 0;
#X connect 12 0 13 0;
