#N canvas 1 50 999 692 10;
#X obj 439 402 writesf~ 1;
#X obj 498 221 r~ archive_main;
#X msg 175 61 bang;
#X msg 356 306 start;
#X msg 566 299 stop;
#X obj 371 120 loadbang;
#X obj 376 209 delay 1;
#X obj 112 452 l2s -;
#X obj 166 173 time;
#X obj 115 175 date;
#X floatatom 138 322 0 0 0 0 - - -;
#X floatatom 126 346 0 0 0 0 - - -;
#X floatatom 115 373 0 0 0 0 - - -;
#X floatatom 188 282 0 0 0 0 - - -;
#X floatatom 176 306 0 0 0 0 - - -;
#X floatatom 165 333 0 0 0 0 - - -;
#X obj 112 420 pack f f f f f f;
#X obj 136 129 t b b;
#X obj 72 527 print FILENAME;
#X obj 111 483 makefilename /root/notes_and_projectsNOW/talkretalk/archive/large-%s.wav
;
#X msg 465 362 open \$1;
#X connect 1 0 0 0;
#X connect 2 0 17 0;
#X connect 3 0 0 0;
#X connect 4 0 0 0;
#X connect 5 0 6 0;
#X connect 5 0 17 0;
#X connect 6 0 3 0;
#X connect 7 0 19 0;
#X connect 8 0 15 0;
#X connect 8 1 14 0;
#X connect 8 2 13 0;
#X connect 9 0 12 0;
#X connect 9 1 11 0;
#X connect 9 2 10 0;
#X connect 10 0 16 2;
#X connect 11 0 16 1;
#X connect 12 0 16 0;
#X connect 13 0 16 5;
#X connect 14 0 16 4;
#X connect 15 0 16 3;
#X connect 16 0 7 0;
#X connect 17 0 9 0;
#X connect 17 1 8 0;
#X connect 19 0 18 0;
#X connect 19 0 20 0;
#X connect 20 0 0 0;
