#N canvas 366 75 999 692 10;
#X obj 328 71 r~ s1;
#X obj 379 72 r~ s2;
#X obj 431 73 r~ s3;
#X obj 485 73 r~ s4;
#X obj 532 72 r~ s5;
#X obj 582 76 r~ s6;
#X obj 623 74 r~ s7;
#X obj 667 76 r~ s8;
#X text 714 83 in;
#X obj 348 198 s m1;
#X obj 398 200 s m2;
#X text 728 201 levels;
#X obj 538 322 s final_select;
#X obj 477 322 r~ sel1;
#X text 492 343 out;
#X obj 428 140 s~ mix1;
#X obj 489 139 s~ mix2;
#X obj 600 127 s~ mix4;
#X obj 656 131 s~ mix5;
#X obj 723 126 s~ mix6;
#X obj 789 125 s~ mix7;
#X obj 856 122 s~ mix8;
#X obj 474 286 s~ so1;
#X obj 521 286 s~ so2;
#X obj 568 286 s~ so3;
#X obj 614 286 s~ so4;
#X obj 665 286 s~ so5;
#X obj 716 285 s~ so6;
#X obj 766 284 s~ so7;
#X obj 820 284 s~ so8;
#X text 876 281 in;
#X text 909 121 in;
#X obj 66 48 r~ pink;
#X text 133 35 no input / one output;
#X obj 98 111 r~ alice;
#X obj 359 243 r~ rarc1;
#X obj 281 253 r~ rarc2;
#X text 227 275 audio in;
#X text 240 225 output;
#X obj 55 312 s trigger1;
#X obj 141 313 s trigger2;
#X text 518 604 out;
#X obj 416 627 s~ o1;
#X obj 501 620 s~ o2;
#X text 444 601 I?O;
#X text 289 386 write to file;
#X obj 55 396 s writetrigger1;
#X obj 170 386 s writetrigger2;
#X obj 50 348 s trigstop1;
#X obj 138 346 s trigstop2;
#X obj 33 463 s end1;
#X obj 73 436 s start1;
#X obj 156 441 s start2;
#X obj 158 467 s end2;
#X text 218 421 start and end points - value from 0 to 100;
#X obj 686 363 s~ sp1;
#X obj 736 363 s~ sp2;
#X obj 788 363 s~ sp3;
#X obj 838 363 s~ sp4;
#X obj 685 388 s~ sp5;
#X obj 735 388 s~ sp6;
#X obj 787 389 s~ sp7;
#X obj 837 389 s~ sp8;
#X obj 208 -24 s ross_speed;
#X obj 210 6 r~ rossl_out;
#X obj 369 -9 s neuroninput1;
#X obj 367 21 r finalneuron;
#X obj 387 510 s~ which one1;
#X obj 316 466 r fidtrig1;
#X text 498 508 audio of which one;
#X obj 687 471 s jekyll1;
#X text 844 474 speeds;
#X obj 565 447 s jekyll2;
#X obj 687 502 s jekyll3;
#X obj 763 500 s jekyll4;
#X obj 680 552 r counter1;
#X obj 771 552 r counter2;
#X obj 680 576 r counter3;
#X obj 674 526 r counter4;
#X text 831 564 output counters 1 to 8;
#X obj 552 173 r~ mixout1;
#X obj 444 197 s m3;
#X obj 495 199 s m4;
#X obj 538 198 s m5;
#X obj 588 200 s m6;
#X obj 634 197 s m7;
#X obj 685 199 s m8;
#X obj 841 498 s jbang1;
#X obj 848 529 s jbang2;
#X obj 917 498 s jbang3;
#X obj 921 529 s jbang4;
#X text 905 469 slow to fast;
#X text 874 609 output bang;
#X obj 733 605 r bang1;
#X obj 730 631 r bang2;
#X obj 791 605 r bang1;
#X obj 790 630 r bang2;
#X obj 40 506 r~ archivred1;
#X obj 146 505 r~ archivred2;
#X text 244 502 archive out;
#X obj 67 545 s file1;
#X obj 140 542 s file2;
#X text 214 538 arch select;
#X text 242 579 trigger/start;
#X text 239 348 stopbang;
#X text 223 313 start recordingbang;
#X text 8 135 receive speech audio sent by OSC to 9999 /test - see
scheme wrapper;
#X text 162 -26 //freq;
#X text 69 14 //pink;
#X text 315 3 //neuron;
#X text 94 86 //alice;
#X text 533 42 //i/O;
#X text 515 107 //mix;
#X text 451 258 //multiplex 8 in 1 out;
#X text 78 204 //archiver;
#X text 394 470 //thresholds;
#X text 716 339 //spatial;
#X obj 711 420 r~ spout1;
#X obj 781 419 r~ spout2;
#X text 850 420 output;
#X text 681 447 //counters;
#X obj 221 77 unsig~ 1;
#X text 250 91 unsig;
#X obj 54 585 s arcread1;
#X obj 135 584 s arcread2;
#X text 465 533 receive bang raw amplitude;
#X obj 388 561 r rawamp;
#X text 467 562 rawamplitude;
#X obj 91 272 s~ sarc1;
#X obj 159 275 s~ sarc2;
#X floatatom 7 353 5 0 100 0 - - -, f 5;
#X floatatom 38 370 5 10 100 0 - - -, f 5;
#X obj 15 427 + 10;
#X floatatom 294 336 5 0 100 0 - - -, f 5;
#X floatatom 321 344 5 10 100 0 - - -, f 5;
#X obj 298 401 + 10;
#X floatatom 116 -7 5 0 0 0 - - -, f 5;
#X floatatom 637 360 5 0 0 0 - - -, f 5;
#X obj 709 10 s~ archive_main;
#X obj 171 111 r~ alice_anna;
#X obj 365 612 tgl 15 0 empty empty empty 0 -6 0 8 -262144 -1 -1 0
1;
#X floatatom 646 633 5 0 0 0 - - -, f 5;
#X obj 55 262 bang;
#X msg 34 235 bang;
#X obj 575 -12 unsig~;
#X floatatom 424 47 5 0 0 0 - - -, f 5;
#X obj 183 635 noise~;
#X obj 370 292 *~ 1;
#X obj 181 88 mod 8;
#X obj 160 60 unsig~ 1;
#X msg 19 3;
#X msg 12 29;
#X msg 28 57;
#X floatatom 103 78 5 0 0 0 - - -, f 5;
#X obj 278 566 *~ 0.4;
#X obj 317 547 *~ 0.4;
#X msg 563 357;
#X floatatom 774 581 5 0 0 0 - - -, f 5;
#X obj 511 385 *~ 1.2;
#X obj 289 601 *~ 0.3;
#X msg 220 301;
#X floatatom 98 226 5 0 0 0 - - -, f 5;
#X obj 270 631 *~ 0.4;
#X obj 924 -7 alice;
#X obj 927 20 jekyll;
#X obj 926 42 archiver;
#X obj 831 65 frequencies-noise;
#X obj 871 88 i_am_a_neuron;
#X obj 938 157 mix;
#X obj 902 188 multiplex;
#X obj 870 217 osc_plus_pipes;
#X obj 914 240 pink~;
#X obj 914 262 recorder;
#X obj 870 317 spatialisation;
#X obj 900 292 thresholds;
#X obj 559 147 s~ mix3;
#X obj 907 367 in-out;
#X connect 0 0 128 0;
#X connect 0 0 22 0;
#X connect 0 0 55 0;
#X connect 1 0 128 0;
#X connect 1 0 23 0;
#X connect 1 0 56 0;
#X connect 2 0 67 0;
#X connect 2 0 24 0;
#X connect 2 0 57 0;
#X connect 3 0 128 0;
#X connect 3 0 25 0;
#X connect 3 0 58 0;
#X connect 4 0 144 0;
#X connect 4 0 26 0;
#X connect 4 0 129 0;
#X connect 4 0 59 0;
#X connect 5 0 144 0;
#X connect 5 0 129 0;
#X connect 5 0 27 0;
#X connect 5 0 60 0;
#X connect 6 0 144 0;
#X connect 6 0 28 0;
#X connect 6 0 129 0;
#X connect 6 0 61 0;
#X connect 7 0 144 0;
#X connect 7 0 29 0;
#X connect 7 0 129 0;
#X connect 7 0 62 0;
#X connect 13 0 158 0;
#X connect 32 0 162 0;
#X connect 35 0 147 0;
#X connect 64 0 149 0;
#X connect 64 0 42 0;
#X connect 64 0 43 0;
#X connect 66 0 145 0;
#X connect 68 0 39 0;
#X connect 68 0 140 0;
#X connect 68 0 40 0;
#X connect 75 0 141 0;
#X connect 76 0 157 0;
#X connect 130 0 51 0;
#X connect 130 0 132 0;
#X connect 131 0 132 1;
#X connect 132 0 50 0;
#X connect 133 0 135 0;
#X connect 133 0 52 0;
#X connect 134 0 135 1;
#X connect 135 0 53 0;
#X connect 136 0 63 0;
#X connect 137 0 72 0;
#X connect 137 0 73 0;
#X connect 137 0 70 0;
#X connect 142 0 39 0;
#X connect 143 0 39 0;
#X connect 144 0 65 0;
#X connect 145 0 12 0;
#X connect 147 0 154 0;
#X connect 148 0 153 0;
#X connect 149 0 148 0;
#X connect 149 0 65 0;
#X connect 161 0 130 0;
#X connect 161 0 133 0;
#X connect 161 0 136 0;
