#N canvas 0 0 999 692 10;
#X text 9 2 pipes and OSC...;
#X obj 24 50 OSCroute /test;
#X obj 176 83 sendOSC;
#X msg 256 89 disconnect;
#X msg 175 53 send \$1;
#X msg 140 22 connect 127.0.0.1 9999;
#X obj 310 32 r OSCin;
#X obj 88 95 s OSCout1;
#X obj 41 142 sig~;
#X text 85 147 tests;
#X obj 47 187 unsig~;
#X obj 501 83 piperead~ 2;
#X msg 533 51 1;
#X msg 572 54 0;
#X msg 489 28 open /root/pdfifo;
#X obj 509 127 s~ pipeout1;
#X obj 46 121 r OSCout1;
#X obj 34 257 dac~;
#X obj 26 219 r~ pipeout1;
#X obj 39 16 dumpOSC 5555;
#X obj 352 319 s alice_in;
#X obj 469 263 OSCroute /test2;
#X obj 536 293 s alice_in2;
#X connect 1 0 7 0;
#X connect 1 0 20 0;
#X connect 3 0 2 0;
#X connect 4 0 2 0;
#X connect 5 0 2 0;
#X connect 6 0 4 0;
#X connect 11 0 15 0;
#X connect 11 1 15 0;
#X connect 12 0 11 0;
#X connect 13 0 11 0;
#X connect 14 0 11 0;
#X connect 16 0 8 0;
#X connect 19 0 1 0;
#X connect 19 0 21 0;
#X connect 21 0 22 0;
